# xmcd CD database file
#
# Track frame offsets:
#	150
#	15136
#	31832
#	49527
#	63358
#	78870
#	95219
#	111304
#	126963
#	141762
#	156935
#	173065
#	189194
#
# Disc length: 2756 seconds
#
# Revision: 0
# Processed by: cddbd v1.5.1PL0 Copyright (c) Steve Scherf et al.
# Submitted via: Feurio! 1.68 - http://www.feurio.com
#
DISCID=9d0ac20d
DTITLE=Jeannine - Gefühle an die Macht
DYEAR=1900
DGENRE=Schlager
TTITLE0=Augen auf
TTITLE1=Ich hab immer Zeit für dich
TTITLE2=Gefühle an die Macht
TTITLE3=Denkst du noch an mich
TTITLE4=Ich teil mein Herz mit dir
TTITLE5=Dich wirklich lieben (Radio Version)
TTITLE6=Ich will leben
TTITLE7=Ich fühl mich gut bei dir
TTITLE8=Küss mich, wenn du Lust hast
TTITLE9=Im Kopf wieder frei
TTITLE10=Du bist nicht allein
TTITLE11=Wirst du mich auch noch morgen liebeb
TTITLE12=Dich wirklich lieben (Disco Version)
EXTD=
EXTT0=
EXTT1=
EXTT2=
EXTT3=
EXTT4=
EXTT5=
EXTT6=
EXTT7=
EXTT8=
EXTT9=
EXTT10=
EXTT11=
EXTT12=
PLAYORDER=
